Bee Movie (2007) | m-HD | 480p | AC3 | Hindi | BHATTI87

General
Unique ID                       : 181524777861219133785478600684780165653 (0x88906689569B851D99C8605FB3589A15)
Complete name                   :Movie (2007)  m-HD  480p  AC3  Hindi  BHATTI87\Bee Movie (2007)  m-HD  480p  AC3  Hindi  BHATTI87.mkv
Format                          : Matroska
File size                       : 396 MiB
Duration                        : 1h 26mn
Overall bit rate                : 637 Kbps
Encoded date                    : UTC 2011-09-04 21:35:48
Writing application             : mkvmerge v4.9.1 ('Ich will') built on Jul 11 2011 23:53:15
Writing library                 : libebml v1.2.1 + libmatroska v1.1.1

Video
ID                              : 1
Format                          : AVC
Format/Info                     : Advanced Video Codec
Format profile                  : High@L3.1
Format settings, CABAC          : Yes
Format settings, ReFrames       : 5 frames
Format settings, GOP            : M=1, N=32
Codec ID                        : V_MPEG4/ISO/AVC
Duration                        : 1h 26mn
Bit rate                        : 507 Kbps
Width                           : 848 pixels
Height                          : 368 pixels
Display aspect ratio            : 2.35:1
Frame rate                      : 23.976 fps
Color space                     : YUV
Chroma subsampling              : 4:2:0
Bit depth                       : 8 bits
Scan type                       : Progressive
Bits/(Pixel*Frame)              : 0.068
Stream size                     : 309 MiB (78%)
Writing library                 : x264 core 116 r2074 2641b9e

Audio
ID                              : 2
Format                          : AC-3
Format/Info                     : Audio Coding 3
Mode extension                  : CM (complete main)
Codec ID                        : A_AC3
Duration                        : 1h 26mn
Bit rate mode                   : Constant
Bit rate                        : 128 Kbps
Channel(s)                      : 2 channels
Channel positions               : Front: L R
Sampling rate                   : 48.0 KHz
Bit depth                       : 16 bits
Compression mode                : Lossy
Stream size                     : 79.6 MiB (20%)


Screens: 
http://img708.imageshack.us/img708/7661/beemovie2007mhd480pac3h.jpg 
http://img33.imageshack.us/img33/7661/beemovie2007mhd480pac3h.jpg 
http://img263.imageshack.us/img263/7661/beemovie2007mhd480pac3h.jpg 
http://img854.imageshack.us/img854/7661/beemovie2007mhd480pac3h.jpg 
http://img585.imageshack.us/img585/7661/beemovie2007mhd480pac3h.jpg 
http://img594.imageshack.us/img594/7661/beemovie2007mhd480pac3h.jpg 
http://img851.imageshack.us/img851/7661/beemovie2007mhd480pac3h.jpg

 ~ Seed 4 others,Others would seed 4 u ~
         Be a Gentleman!!

    ______            ______   _______    
   (  __  \ |\     /|(  __  \ (  ____ \   
   | (  \  )| )   ( || (  \  )| (    \/   
   | |   ) || |   | || |   ) || (__       
   | |   | || |   | || |   | ||  __)      
   | |   ) || |   | || |   ) || (         
 _ | (__/  )| (___) || (__/  )| (____/\ _ 
(_)(______/ (_______)(______/ (_______/(_)


A simple THANKS goes a long way... :-)
Any comments would b appreciated.

